<svg width="205" height="32" viewBox="0 0 205 32" fill="none" xmlns="http://www.w3.org/2000/svg">
<g clip-path="url(#clip0_909_722)">
<path d="M53.4868 26.5192C52.5804 27.2053 51.3617 27.5478 49.8313 27.5478C48.4413 27.5478 47.2429 27.2255 46.2359 26.5799C45.2284 25.9348 44.4483 25.0214 43.8945 23.8415C43.3403 22.6615 43.0639 21.2448 43.0639 19.5907C43.0639 17.9366 43.3403 16.5098 43.8945 15.3096C44.4483 14.1099 45.2284 13.1915 46.2359 12.556C47.2429 11.9205 48.4413 11.6027 49.8313 11.6027C51.3617 11.6027 52.5854 11.9559 53.502 12.6618C54.418 13.3681 55.0071 14.3361 55.2694 15.5666H58.9552C58.5323 13.3681 57.5354 11.6589 55.9641 10.438C54.3932 9.21752 52.3586 8.6073 49.8611 8.6073C47.7658 8.6073 45.9535 9.07129 44.423 9.99926C42.8921 10.9272 41.7189 12.2129 40.9034 13.8569C40.0874 15.5013 39.6797 17.4119 39.6797 19.5902C39.6797 21.7685 40.0874 23.6497 40.9034 25.2937C41.7189 26.9381 42.8921 28.2188 44.423 29.1361C45.9535 30.054 47.7663 30.5129 49.8611 30.5129C52.3581 30.5129 54.3978 29.9077 55.9792 28.6974C57.5602 27.4871 58.5626 25.783 58.9855 23.5839H55.2997C54.9975 24.855 54.3932 25.8336 53.4868 26.5187V26.5192Z" fill="#F8FAFF"/>
<path d="M72.384 15.7635C71.2057 15.1082 69.8612 14.7803 68.3505 14.7803C66.8398 14.7803 65.5453 15.1082 64.3474 15.7635C63.1489 16.4192 62.202 17.3366 61.5073 18.5165C60.8126 19.6965 60.465 21.0733 60.465 22.6464C60.465 24.2195 60.8126 25.5715 61.5073 26.761C62.202 27.9516 63.1433 28.874 64.3322 29.5293C65.5206 30.1845 66.8595 30.5124 68.3505 30.5124C69.8415 30.5124 71.1799 30.1845 72.3688 29.5293C73.5572 28.874 74.499 27.9511 75.1937 26.761C75.8884 25.571 76.236 24.1997 76.236 22.6464C76.236 21.093 75.8884 19.6965 75.1937 18.5165C74.499 17.3366 73.5622 16.4187 72.384 15.7635ZM72.1874 25.4151C71.7842 26.1518 71.2456 26.7064 70.5711 27.0793C69.8961 27.4527 69.1559 27.6389 68.3505 27.6389C67.5451 27.6389 66.8044 27.4527 66.1299 27.0793C65.4549 26.7064 64.9163 26.1518 64.5136 25.4151C64.1104 24.6789 63.9093 23.756 63.9093 22.6469C63.9093 21.5378 64.1154 20.6148 64.5287 19.8786C64.9415 19.1424 65.4852 18.5879 66.1602 18.2144C66.8347 17.8415 67.5749 17.6548 68.3808 17.6548C69.1867 17.6548 69.8961 17.8415 70.5711 18.2144C71.2456 18.5879 71.7842 19.1424 72.1874 19.8786C72.5901 20.6153 72.7917 21.5378 72.7917 22.6469C72.7917 23.756 72.5901 24.6794 72.1874 25.4151Z" fill="#F8FAFF"/>
<path d="M86.9012 14.7798C85.7932 14.7798 84.8064 15.0272 83.9404 15.5211C83.0744 16.0154 82.3893 16.6858 81.8861 17.5329V15.1426H78.5625V30.1496H81.8861V22.404C81.8861 20.8714 82.2686 19.6914 83.034 18.8641C83.799 18.0373 84.766 17.6234 85.9342 17.6234C87.1023 17.6234 87.9734 17.9817 88.5474 18.6976C89.1213 19.4141 89.4083 20.4782 89.4083 21.8899V30.1496H92.7319V21.557C92.7319 19.318 92.218 17.629 91.1909 16.489C90.1637 15.3495 88.7333 14.7793 86.9007 14.7793L86.9012 14.7798Z" fill="#F8FAFF"/>
<path d="M104.092 14.7798C102.984 14.7798 101.997 15.0272 101.131 15.5211C100.265 16.0154 99.5797 16.6858 99.0765 17.5329V15.1426H95.7529V30.1496H99.0765V22.404C99.0765 20.8714 99.459 19.6914 100.224 18.8641C100.989 18.0373 101.956 17.6234 103.125 17.6234C104.293 17.6234 105.164 17.9817 105.738 18.6976C106.312 19.4141 106.599 20.4782 106.599 21.8899V30.1496H109.922V21.557C109.922 19.318 109.408 17.629 108.381 16.489C107.354 15.3495 105.924 14.7793 104.091 14.7793L104.092 14.7798Z" fill="#F8FAFF"/>
<path d="M123.745 15.7482C122.647 15.1031 121.362 14.7803 119.893 14.7803C118.423 14.7803 117.052 15.1132 115.905 15.7786C114.757 16.444 113.86 17.3775 113.216 18.5772C112.571 19.7774 112.249 21.1542 112.249 22.707C112.249 24.2599 112.576 25.622 113.231 26.7918C113.885 27.9617 114.781 28.875 115.92 29.5302C117.058 30.1855 118.372 30.5134 119.862 30.5134C121.071 30.5134 122.143 30.2963 123.08 29.8627C124.016 29.429 124.802 28.834 125.436 28.0776C126.071 27.3211 126.518 26.469 126.781 25.5208H123.427C123.145 26.2069 122.702 26.7514 122.098 27.1546C121.494 27.5584 120.748 27.7598 119.862 27.7598C119.077 27.7598 118.357 27.5781 117.702 27.2154C117.047 26.8526 116.519 26.3127 116.116 25.5967C115.771 24.9835 115.574 24.2619 115.525 23.4336H127.143C127.183 23.1513 127.204 22.8942 127.204 22.662V22.0113C127.204 20.6603 126.902 19.4394 126.298 18.3505C125.693 17.2611 124.842 16.3944 123.745 15.7482ZM115.577 21.1941C115.665 20.5703 115.844 20.0304 116.116 19.5755C116.518 18.9 117.052 18.3854 117.717 18.0322C118.382 17.6796 119.107 17.503 119.892 17.503C120.98 17.503 121.901 17.8359 122.656 18.5013C123.412 19.1672 123.819 20.0648 123.88 21.1941H115.576H115.577Z" fill="#F8FAFF"/>
<path d="M134.621 18.2134C135.275 17.8203 135.975 17.6234 136.721 17.6234C137.647 17.6234 138.443 17.8501 139.108 18.304C139.772 18.7579 140.205 19.3883 140.407 20.1949H143.851C143.508 18.5211 142.703 17.1994 141.434 16.2315C140.165 15.2635 138.604 14.7793 136.751 14.7793C135.26 14.7793 133.936 15.1122 132.778 15.7776C131.62 16.4435 130.709 17.3659 130.044 18.5458C129.379 19.7258 129.047 21.0925 129.047 22.6453C129.047 24.1982 129.379 25.5649 130.044 26.7448C130.709 27.9248 131.62 28.8477 132.778 29.5131C133.936 30.1789 135.261 30.5114 136.751 30.5114C138.604 30.5114 140.17 30.012 141.449 29.0137C142.728 28.0154 143.529 26.7094 143.851 25.0953H140.407C140.205 25.9226 139.772 26.5581 139.108 27.0014C138.443 27.4451 137.647 27.6672 136.721 27.6672C135.975 27.6672 135.275 27.476 134.621 27.0924C133.966 26.7094 133.443 26.1392 133.05 25.3827C132.657 24.6263 132.461 23.714 132.461 22.6443C132.461 21.5747 132.657 20.6427 133.05 19.9059C133.443 19.1697 133.967 18.605 134.621 18.2114V18.2134Z" fill="#F8FAFF"/>
<path d="M150.648 11.2998H147.324V15.1423H144.756V17.956H147.324V25.8226C147.324 27.0132 147.485 27.9204 147.808 28.5458C148.129 29.1712 148.613 29.5947 149.258 29.8168C149.902 30.0389 150.688 30.1498 151.614 30.1498H154.515V27.3056H152.702C152.138 27.3056 151.71 27.2656 151.418 27.1847C151.126 27.1042 150.925 26.9277 150.814 26.6554C150.703 26.3832 150.648 25.9546 150.648 25.3697V17.957H154.666V15.1433H150.648V11.3008V11.2998Z" fill="#F8FAFF"/>
<path d="M166.948 15.7483C165.85 15.1031 164.565 14.7803 163.096 14.7803C161.626 14.7803 160.255 15.1133 159.108 15.7786C157.96 16.444 157.063 17.3775 156.419 18.5772C155.774 19.7774 155.452 21.1542 155.452 22.7071C155.452 24.2599 155.779 25.6221 156.434 26.7919C157.088 27.9617 157.984 28.875 159.123 29.5303C160.261 30.1855 161.575 30.5134 163.065 30.5134C164.274 30.5134 165.346 30.2963 166.283 29.8627C167.219 29.4291 168.005 28.8341 168.639 28.0776C169.274 27.3212 169.721 26.4691 169.984 25.5209H166.63C166.348 26.207 165.905 26.7514 165.301 27.1547C164.697 27.5585 163.951 27.7598 163.065 27.7598C162.28 27.7598 161.56 27.5782 160.905 27.2154C160.25 26.8526 159.722 26.3127 159.319 25.5968C158.974 24.9835 158.777 24.262 158.728 23.4337H170.346C170.386 23.1513 170.407 22.8943 170.407 22.6621V22.0114C170.407 20.6604 170.105 19.4394 169.501 18.3506C168.896 17.2612 168.045 16.3944 166.948 15.7483ZM158.78 21.1942C158.868 20.5703 159.047 20.0304 159.319 19.5755C159.721 18.9001 160.255 18.3855 160.92 18.0323C161.585 17.6796 162.31 17.503 163.095 17.503C164.183 17.503 165.104 17.836 165.859 18.5013C166.615 19.1672 167.022 20.0648 167.083 21.1942H158.779H158.78Z" fill="#F8FAFF"/>
<path d="M183.776 15.7482C182.678 15.1031 181.394 14.7803 179.924 14.7803C178.454 14.7803 177.084 15.1132 175.936 15.7786C174.788 16.444 173.891 17.3775 173.247 18.5772C172.602 19.7774 172.28 21.1542 172.28 22.707C172.28 24.2599 172.607 25.622 173.262 26.7918C173.916 27.9617 174.813 28.875 175.951 29.5302C177.089 30.1855 178.403 30.5134 179.893 30.5134C181.102 30.5134 182.175 30.2963 183.111 29.8627C184.047 29.429 184.833 28.834 185.467 28.0776C186.102 27.3211 186.55 26.469 186.812 25.5208H183.459C183.176 26.2069 182.734 26.7514 182.129 27.1546C181.525 27.5584 180.78 27.7598 179.893 27.7598C179.108 27.7598 178.388 27.5781 177.733 27.2154C177.079 26.8526 176.55 26.3127 176.148 25.5967C175.802 24.9835 175.605 24.2619 175.556 23.4336H187.175C187.215 23.1513 187.235 22.8942 187.235 22.662V22.0113C187.235 20.6603 186.933 19.4394 186.329 18.3505C185.725 17.2611 184.873 16.3944 183.776 15.7482ZM175.607 21.1941C175.696 20.5703 175.875 20.0304 176.146 19.5755C176.549 18.9 177.083 18.3854 177.748 18.0322C178.413 17.6796 179.138 17.503 179.923 17.503C181.011 17.503 181.932 17.8359 182.687 18.5013C183.442 19.1672 183.85 20.0648 183.911 21.1941H175.607H175.607Z" fill="#F8FAFF"/>
<path d="M201.677 8.36523V17.3814C201.173 16.5748 200.478 15.9393 199.592 15.4753C198.705 15.0113 197.678 14.7796 196.51 14.7796C195.06 14.7796 193.776 15.1176 192.658 15.7931C191.541 16.4691 190.664 17.3966 190.03 18.5765C189.395 19.7565 189.078 21.1029 189.078 22.6158C189.078 24.1287 189.395 25.4554 190.03 26.6551C190.665 27.8553 191.541 28.7984 192.658 29.484C193.776 30.1696 195.05 30.5127 196.48 30.5127C197.789 30.5127 198.867 30.2405 199.713 29.6955C200.559 29.1511 201.213 28.5358 201.677 27.8497V30.1494H205V8.36523H201.677ZM201.118 25.2181C200.725 25.9644 200.181 26.5493 199.486 26.9728C198.792 27.3963 197.991 27.6083 197.084 27.6083C196.178 27.6083 195.407 27.3963 194.713 26.9728C194.018 26.5493 193.469 25.9644 193.066 25.2181C192.663 24.4723 192.462 23.6045 192.462 22.6163C192.462 21.6281 192.663 20.7912 193.066 20.0444C193.469 19.2986 194.018 18.7182 194.713 18.3048C195.407 17.8914 196.198 17.6845 197.084 17.6845C197.971 17.6845 198.792 17.8914 199.486 18.3048C200.181 18.7187 200.725 19.2986 201.118 20.0444C201.51 20.7907 201.707 21.6585 201.707 22.6467C201.707 23.6348 201.51 24.4723 201.118 25.2186V25.2181Z" fill="#F8FAFF"/>
<path d="M23.9486 0H15.4265C15.1087 0 14.851 0.258052 14.851 0.576317V5.63768C14.851 6.34151 14.2811 6.91226 13.5782 6.91226H5.75385C2.57579 6.91175 0 9.49177 0 12.6739V26.2378C0 29.42 2.57579 32 5.75385 32H14.276C14.5938 32 14.8515 31.7419 14.8515 31.4237V26.3623C14.8515 25.6585 15.4214 25.0877 16.1242 25.0877H23.9491C27.1267 25.0877 29.703 22.5082 29.703 19.3256V5.76216C29.703 2.58002 27.1272 0 23.9491 0H23.9486ZM22.7982 18.1735H15.4265C15.1087 18.1735 14.851 18.4315 14.851 18.7498V23.8137C14.851 24.4922 14.322 25.0463 13.654 25.0857H6.90382V13.8265H14.2755C14.5933 13.8265 14.851 13.5685 14.851 13.2502V8.18633C14.851 7.5078 15.38 6.95375 16.0479 6.91428H22.7982V18.1735Z" fill="#F8FAFF"/>
</g>
<defs>
<clipPath id="clip0_909_722">
<rect width="205" height="32" fill="white"/>
</clipPath>
</defs>
</svg>
